<svg width="38" height="38" viewBox="0 0 38 38" fill="none" xmlns="http://www.w3.org/2000/svg"><g clip-path="url(#clip0)" fill="#F50057"><path d="M37.624 14.785c.5-.5.5-1.311 0-1.812l-1.922-1.922a1.281 1.281 0 0 0-1.626-.154l-4.043 2.748 2.73-4.07a1.281 1.281 0 0 0-.157-1.62l-4.17-4.17a1.281 1.281 0 0 0-1.463-.25l-.72.348.345-.766a1.281 1.281 0 0 0-.263-1.433L25.026.375c-.5-.5-1.311-.5-1.812 0l-10.17 10.17 14.411 14.41 10.17-10.17zm-26.472-2.347l-2.944 2.944a1.281 1.281 0 0 0 0 1.812L11 19.986c.538.538.8 1.28.716 2.037a2.487 2.487 0 0 1-1.141 1.835c-8.206 5.23-8.97 5.995-9.222 6.246a4.632 4.632 0 0 0 0 6.543 4.632 4.632 0 0 0 6.543 0c.251-.251 1.016-1.016 6.246-9.222a2.486 2.486 0 0 1 1.834-1.139 2.485 2.485 0 0 1 2.037.714l2.793 2.792c.5.5 1.312.5 1.812 0l2.944-2.944-14.41-14.41zm-5.169 22.14a1.81 1.81 0 1 1-2.56-2.56 1.81 1.81 0 0 1 2.56 2.56z"/></g><defs><clipPath id="clip0"><path fill="#fff" d="M0 0h38v38H0z"/></clipPath></defs></svg>