<svg width="43" height="42" viewBox="0 0 43 42" fill="none" xmlns="http://www.w3.org/2000/svg"><g clip-path="url(#clip0)" fill="#F50057"><path d="M26.884 5.668l-1.423-.39a.641.641 0 0 0-.54.058.746.746 0 0 0-.356.447l-8.56 29.63a.688.688 0 0 0 .057.563c.1.175.248.294.448.355l1.423.39a.64.64 0 0 0 .539-.057.747.747 0 0 0 .356-.447l8.56-29.63a.688.688 0 0 0-.057-.563.745.745 0 0 0-.447-.356zm-12.829 5.784a.726.726 0 0 0-.23-.527l-1.147-1.148a.726.726 0 0 0-.528-.23.726.726 0 0 0-.528.23L.927 20.472a.725.725 0 0 0-.23.528c0 .199.077.375.23.528l10.695 10.695c.153.153.329.23.528.23s.375-.077.528-.23l1.147-1.147a.726.726 0 0 0 .23-.528.725.725 0 0 0-.23-.528L4.805 21l9.02-9.02a.725.725 0 0 0 .23-.528zm28.412 9.02L31.772 9.777a.726.726 0 0 0-.528-.23.728.728 0 0 0-.528.23l-1.147 1.147a.725.725 0 0 0-.23.528c0 .2.077.375.23.528l9.02 9.02-9.02 9.02a.725.725 0 0 0-.23.528c0 .199.077.375.23.528l1.147 1.147a.73.73 0 0 0 .528.23.725.725 0 0 0 .528-.23l10.695-10.695a.726.726 0 0 0 .23-.528.725.725 0 0 0-.23-.528z"/></g><defs><clipPath id="clip0"><path fill="#fff" transform="translate(.697)" d="M0 0h42v42H0z"/></clipPath></defs></svg>