<svg width="39" height="39" viewBox="0 0 39 39" fill="none" xmlns="http://www.w3.org/2000/svg"><g clip-path="url(#clip0)" fill="#F50057"><path d="M17.244.849c-.016 0-.03.007-.045.009.015-.002.029-.01.044-.01zm.279.061c-.004-.001-.008 0-.013-.002a.63.63 0 0 1 .372.573v.633a.634.634 0 0 1-1.267 0v-.633a.63.63 0 0 1 .363-.568c-.007.003-.015.002-.021.006L1.123 9.153c-.007.003-.012.01-.019.013l-.001.001 16.146 8.073 16.773-8.386L17.524.91zm.359 12.604a.634.634 0 0 1-1.267 0v-1.266a.634.634 0 0 1 1.267 0v1.267zm0-3.8a.634.634 0 0 1-1.267 0V8.448a.634.634 0 0 1 1.267 0v1.266zm0-3.8a.634.634 0 0 1-1.267 0V4.648a.634.634 0 0 1 1.267 0v1.266zm.001 12.426v20.51a.64.64 0 0 0 .254-.06c.01-.005.02-.003.029-.007l16.467-8.234a.634.634 0 0 0 .35-.567V9.79l-17.1 8.55zm5.326 6.793a.632.632 0 0 1-.84.31l-1.15-.531a.633.633 0 1 1 .53-1.15l1.15.53a.633.633 0 0 1 .31.84zm3.45 1.592a.633.633 0 0 1-.84.31l-1.15-.531a.634.634 0 0 1 .531-1.15l1.15.53a.634.634 0 0 1 .31.841zm3.45 1.592a.632.632 0 0 1-.84.31l-1.15-.53a.633.633 0 0 1 .532-1.15l1.15.53a.633.633 0 0 1 .309.84zM.781 29.982c0 .24.136.459.35.567l15.485 7.742V18.34L.782 10.422v19.559zm13.536-6.945l1.15-.53a.634.634 0 0 1 .531 1.15l-1.15.53a.633.633 0 0 1-.53-1.15zm-3.45 1.593l1.15-.53a.634.634 0 0 1 .53 1.15l-1.15.53a.632.632 0 0 1-.53-1.15zm-3.45 1.592l1.15-.531a.634.634 0 0 1 .53 1.15l-1.15.53a.634.634 0 0 1-.53-1.15zm-3.45 1.593l1.15-.53a.633.633 0 0 1 .53 1.15l-1.15.53a.633.633 0 0 1-.53-1.15z"/></g><defs><clipPath id="clip0"><path fill="#fff" transform="translate(.781 .85)" d="M0 0h38v38H0z"/></clipPath></defs></svg>