<svg width="39" height="39" viewBox="0 0 39 39" fill="none" xmlns="http://www.w3.org/2000/svg"><g clip-path="url(#clip0)"><path d="M15.71 21.132c-.724.796-.9 1.367-1.848 2.864.612.427 1.788 1.414 2.604 3.114 1.629-.935 2.39-1.077 3.252-1.804C25.356 20.559 39.16 3.54 38.685 3.049c-.498-.522-18.012 12.638-22.976 18.083zm-3.475 4.186c-2.449-.434-4.866 1.115-6.48 4.983-1.614 3.87-4.498 5.417-5.058 5.323 3.01 1.09 12.19 3.874 14.47-6.73-.969-2.542-2.932-3.576-2.932-3.576z" fill="#F50057"/></g><defs><clipPath id="clip0"><path fill="#fff" transform="translate(.697 .908)" d="M0 0h38v38.002H0z"/></clipPath></defs></svg>