<?xml version="1.0" encoding="utf-8"?><svg width="192" height="52" fill="none" xmlns="http://www.w3.org/2000/svg" viewBox="0 0 192 52"><g clip-path="url(#gclip0)"><path d="M6.375 12.705l18.256 19.054c3.936 4.109 10.504 4.109 14.441 0L50.107 20.24c3.937-4.109 10.505-4.109 14.442 0l11.055 11.54c3.93 4.1 10.48 4.11 14.422.02l11.178-11.602c3.941-4.09 10.493-4.08 14.422.02l11.056 11.54c3.937 4.109 10.504 4.109 14.441 0l11.035-11.518c3.937-4.109 10.505-4.109 14.442 0l18.255 19.054" stroke="#0039CB" stroke-width="14" stroke-miterlimit="10" stroke-linecap="round" stroke-linejoin="round"/></g><defs><clipPath id="gclip0"><path fill="#fff" transform="translate(.115)" d="M0 0h191v52H0z"/></clipPath></defs></svg>