<?xml version="1.0" encoding="utf-8"?><svg viewBox="0 0 774 1333" xmlns="http://www.w3.org/2000/svg" xmlns:xlink="http://www.w3.org/1999/xlink"><style>:root>svg{display:none}:root>svg:target{display:block}</style><svg fill="none" viewBox="0 0 55 8" id="arrow-link" xmlns="http://www.w3.org/2000/svg"><path d="M54.291 4.354a.5.5 0 0 0 0-.708L51.11.464a.5.5 0 1 0-.707.708L53.231 4l-2.829 2.828a.5.5 0 0 0 .707.708l3.182-3.182zM.23 4.5h53.709v-1H.228v1z" fill="#000"/></svg><svg fill="none" viewBox="0 0 615 1333" id="line-purp-header" xmlns="http://www.w3.org/2000/svg"><path d="M675.375 8.71L15.765 668.32l656.407 656.401" stroke="#0039CB" stroke-width="22"/></svg><svg fill="none" viewBox="0 0 774 1275" id="line-red-header" xmlns="http://www.w3.org/2000/svg"><path d="M7.832-11L758 739.168 230.326 1266.84" stroke="#F50057" stroke-width="22"/></svg><svg fill="none" viewBox="0 0 562 562" id="line-yellow-header" xmlns="http://www.w3.org/2000/svg"><path d="M569.22-6.973L8.71 553.537" stroke="#FFEB3B" stroke-width="22"/></svg><svg fill="none" viewBox="0 0 641 906" id="rectangle-purp-header" xmlns="http://www.w3.org/2000/svg"><path d="M-.59 528.939V-.118l641.352 641.352-264.528 264.528L-.589 528.939z" fill="#0039CB"/></svg><svg fill="none" viewBox="0 0 704 354" id="triangle-yellow-header" xmlns="http://www.w3.org/2000/svg"><path d="M.609 1.802h702.638l-351.32 351.319L.609 1.802z" fill="#FFEB3B"/></svg><svg fill="none" viewBox="0 0 192 52" id="zigzag" xmlns="http://www.w3.org/2000/svg"><g clip-path="url(#gclip0)"><path d="M6.375 12.705l18.256 19.054c3.936 4.109 10.504 4.109 14.441 0L50.107 20.24c3.937-4.109 10.505-4.109 14.442 0l11.055 11.54c3.93 4.1 10.48 4.11 14.422.02l11.178-11.602c3.941-4.09 10.493-4.08 14.422.02l11.056 11.54c3.937 4.109 10.504 4.109 14.441 0l11.035-11.518c3.937-4.109 10.505-4.109 14.442 0l18.255 19.054" stroke="#0039CB" stroke-width="14" stroke-miterlimit="10" stroke-linecap="round" stroke-linejoin="round"/></g><defs><clipPath id="gclip0"><path fill="#fff" transform="translate(.115)" d="M0 0h191v52H0z"/></clipPath></defs></svg></svg>